<svg width="78" height="48" viewBox="0 0 78 48" fill="none" xmlns="http://www.w3.org/2000/svg">
<path d="M36 0L36 6L42 6L42 -2.62268e-07L36 0Z" fill="#4CD30C"/>
<path d="M36 6L36 12L42 12L42 6L36 6Z" fill="#4CD30C"/>
<path d="M42 6L42 12L48 12L48 6L42 6Z" fill="#4CD30C"/>
<path d="M30 6L30 12L36 12L36 6L30 6Z" fill="#4CD30C"/>
<path d="M36 12L36 18L42 18L42 12L36 12Z" fill="#4CD30C"/>
<path d="M42 12L42 18L48 18L48 12L42 12Z" fill="#4CD30C"/>
<path d="M48 12L48 18L54 18L54 12L48 12Z" fill="#4CD30C"/>
<path d="M24 12L24 18L30 18L30 12L24 12Z" fill="#4CD30C"/>
<path d="M30 12L30 18L36 18L36 12L30 12Z" fill="#4CD30C"/>
<path d="M36 18L36 24L42 24L42 18L36 18Z" fill="#4CD30C"/>
<path d="M42 18L42 24L48 24L48 18L42 18Z" fill="#4CD30C"/>
<path d="M48 18L48 24L54 24L54 18L48 18Z" fill="#4CD30C"/>
<path d="M54 18L54 24L60 24L60 18L54 18Z" fill="#4CD30C"/>
<path d="M24 18L24 24L18 24L18 18L24 18Z" fill="#4CD30C"/>
<path d="M24 18L24 24L30 24L30 18L24 18Z" fill="#4CD30C"/>
<path d="M30 18L30 24L36 24L36 18L30 18Z" fill="#4CD30C"/>
<path d="M36 24L36 30L42 30L42 24L36 24Z" fill="#4CD30C"/>
<path d="M42 24L42 30L48 30L48 24L42 24Z" fill="#4CD30C"/>
<path d="M48 24L48 30L54 30L54 24L48 24Z" fill="#4CD30C"/>
<path d="M54 24L54 30L60 30L60 24L54 24Z" fill="#4CD30C"/>
<path d="M24 24L24 30L18 30L18 24L24 24Z" fill="#4CD30C"/>
<path d="M60 24L60 30L66 30L66 24L60 24Z" fill="#4CD30C"/>
<path d="M18 24L18 30L12 30L12 24L18 24Z" fill="#4CD30C"/>
<path d="M24 24L24 30L30 30L30 24L24 24Z" fill="#4CD30C"/>
<path d="M30 24L30 30L36 30L36 24L30 24Z" fill="#4CD30C"/>
<path d="M36 30L36 36L42 36L42 30L36 30Z" fill="#4CD30C"/>
<path d="M36 36L36 42L42 42L42 36L36 36Z" fill="#4CD30C"/>
<path d="M36 42L36 48L42 48L42 42L36 42Z" fill="#4CD30C"/>
<path d="M42 30L42 36L48 36L48 30L42 30Z" fill="#4CD30C"/>
<path d="M42 36L42 42L48 42L48 36L42 36Z" fill="#4CD30C"/>
<path d="M42 42L42 48L48 48L48 42L42 42Z" fill="#4CD30C"/>
<path d="M48 30L48 36L54 36L54 30L48 30Z" fill="#4CD30C"/>
<path d="M48 36L48 42L54 42L54 36L48 36Z" fill="#4CD30C"/>
<path d="M48 42L48 48L54 48L54 42L48 42Z" fill="#4CD30C"/>
<path d="M54 30L54 36L60 36L60 30L54 30Z" fill="#4CD30C"/>
<path d="M54 36L54 42L60 42L60 36L54 36Z" fill="#4CD30C"/>
<path d="M54 42L54 48L60 48L60 42L54 42Z" fill="#4CD30C"/>
<path d="M24 30L24 36L18 36L18 30L24 30Z" fill="#4CD30C"/>
<path d="M24 36L24 42L18 42L18 36L24 36Z" fill="#4CD30C"/>
<path d="M24 42L24 48L18 48L18 42L24 42Z" fill="#4CD30C"/>
<path d="M60 30L60 36L66 36L66 30L60 30Z" fill="#4CD30C"/>
<path d="M60 36L60 42L66 42L66 36L60 36Z" fill="#4CD30C"/>
<path d="M60 42L60 48L66 48L66 42L60 42Z" fill="#4CD30C"/>
<path d="M18 30L18 36L12 36L12 30L18 30Z" fill="#4CD30C"/>
<path d="M18 36L18 42L12 42L12 36L18 36Z" fill="#4CD30C"/>
<path d="M18 42L18 48L12 48L12 42L18 42Z" fill="#4CD30C"/>
<path d="M66 30L66 36L72 36L72 30L66 30Z" fill="#4CD30C"/>
<path d="M66 36L66 42L72 42L72 36L66 36Z" fill="#4CD30C"/>
<path d="M66 42L66 48L72 48L72 42L66 42Z" fill="#4CD30C"/>
<path d="M72 36L72 42L78 42L78 36L72 36Z" fill="#4CD30C"/>
<path d="M72 42L72 48L78 48L78 42L72 42Z" fill="#4CD30C"/>
<path d="M-2.62268e-07 36L0 42L6 42L6 36L-2.62268e-07 36Z" fill="#4CD30C"/>
<path d="M-2.62268e-07 42L0 48L6 48L6 42L-2.62268e-07 42Z" fill="#4CD30C"/>
<path d="M12 30L12 36L6 36L6 30L12 30Z" fill="#4CD30C"/>
<path d="M12 36L12 42L6 42L6 36L12 36Z" fill="#4CD30C"/>
<path d="M12 42L12 48L6 48L6 42L12 42Z" fill="#4CD30C"/>
<path d="M24 30L24 36L30 36L30 30L24 30Z" fill="#4CD30C"/>
<path d="M24 36L24 42L30 42L30 36L24 36Z" fill="#4CD30C"/>
<path d="M24 42L24 48L30 48L30 42L24 42Z" fill="#4CD30C"/>
<path d="M30 30L30 36L36 36L36 30L30 30Z" fill="#4CD30C"/>
<path d="M30 36L30 42L36 42L36 36L30 36Z" fill="#4CD30C"/>
<path d="M30 42L30 48L36 48L36 42L30 42Z" fill="#4CD30C"/>
</svg>
