<?xml version="1.0" encoding="utf-8"?>
<!-- Generator: Adobe Illustrator 27.0.0, SVG Export Plug-In . SVG Version: 6.00 Build 0)  -->
<!DOCTYPE svg PUBLIC "-//W3C//DTD SVG 1.1 Tiny//EN" "http://www.w3.org/Graphics/SVG/1.1/DTD/svg11-tiny.dtd" [
	<!ENTITY ns_extend "http://ns.adobe.com/Extensibility/1.0/">
	<!ENTITY ns_ai "http://ns.adobe.com/AdobeIllustrator/10.0/">
	<!ENTITY ns_graphs "http://ns.adobe.com/Graphs/1.0/">
	<!ENTITY ns_vars "http://ns.adobe.com/Variables/1.0/">
	<!ENTITY ns_imrep "http://ns.adobe.com/ImageReplacement/1.0/">
	<!ENTITY ns_sfw "http://ns.adobe.com/SaveForWeb/1.0/">
	<!ENTITY ns_custom "http://ns.adobe.com/GenericCustomNamespace/1.0/">
	<!ENTITY ns_adobe_xpath "http://ns.adobe.com/XPath/1.0/">
]>
<svg version="1.1" baseProfile="tiny" id="圖層_1" xmlns:x="&ns_extend;" xmlns:i="&ns_ai;" xmlns:graph="&ns_graphs;"
	 xmlns="http://www.w3.org/2000/svg" xmlns:xlink="http://www.w3.org/1999/xlink" x="0px" y="0px" width="186.7px" height="36px"
	 viewBox="0 0 186.7 36" overflow="visible" xml:space="preserve">
<metadata>
	<sfw  xmlns="&ns_sfw;">
		<slices></slices>
		<sliceSourceBounds  bottomLeftOrigin="true" height="36" width="186.7" x="0" y="0"></sliceSourceBounds>
	</sfw>
</metadata>
<path fill="#4CD30C" d="M38.1,14.4v-1.8v-1.8h-1.9V9V7.2h-1.9V5.4V3.6h-1.9V1.8h-1.9V0h-1.9h-1.8h-1.9H23h-1.9H19h-1.9h-1.9h-1.8
	h-1.9h-2v1.8H7.6v1.8H5.8v1.8v1.8h-2V9v1.8H1.9v1.8v1.8H0v1.8V18v1.8v1.8h1.9v1.8v1.8h1.9V27v1.8h1.9v1.8h1.9v1.8v1.8h1.9V36h1.9
	h1.8h1.9H17h1.9H21h1.9h1.9h1.8h1.9h1.9v-1.8h1.9v-1.8v-1.8h1.9v-1.8h1.9V27v-1.8H38v-1.8v-1.8h2v-1.8V18v-1.8v-1.8
	C40,14.4,38.1,14.4,38.1,14.4z M34.2,21.6v1.8v1.8h-1.9V27v1.8h-1.9v1.8h-1.9v1.8h-1.8h-1.9h-1.9H21h-2h-1.9h-1.9h-1.8h-1.9v-1.8h-2
	v-1.8H7.6V27v-1.8H5.8v-1.8v-1.8h-2v-1.8V18v-1.8v-1.8h1.9v-1.8v-1.8h1.9V9V7.2h1.9V5.4h1.9V3.6h1.8h1.9H17h1.9H21h1.9h1.9h1.8h1.9
	v1.8h1.9v1.8h1.9V9v1.8h1.9v1.8v1.8h1.9v1.8V18v1.8v1.8C36.1,21.6,34.2,21.6,34.2,21.6z"/>
<path fill="#4CD30C" d="M17.2,28.8h-1.9h-1.9v1.8h1.9h1.9h1.9h1.8v-1.8h-1.8H17.2z"/>
<path fill="#4CD30C" d="M17.2,23.4h-1.9h-1.9h-1.9h-2v1.8h1.9V27h1.9h1.9h1.9H19h1.8v-1.8v-1.8H19C19,23.4,17.2,23.4,17.2,23.4z"/>
<path fill="#4CD30C" d="M17.2,18h-1.9h-1.9h-1.9h-2H7.6v1.8v1.8h1.9h1.9h1.9h1.9h1.9H19h1.8v-1.8V18H19H17.2z"/>
<path fill="#4CD30C" d="M55,15.4v-2.6h10.2V7.5h2.5v5.2H78v2.6L55,15.4L55,15.4z M55,28.5v-2.6h2.5v2.6H55z M57.5,23.3H60v2.6h-2.5
	V23.3z M60.1,20.6h2.5v2.6h-2.5V20.6z M70.4,23.3v-2.6h2.5v2.6H70.4z M72.9,25.8v-2.6h2.5v2.6H72.9z M75.5,28.5v-2.6H78v2.6H75.5z"
	/>
<path fill="#4CD30C" d="M93,29.5V27h2.5v2.5H93z M108,29.5V27h2.5v-2.5H98V27h-2.5V11.7H98V9.1h2.5v2.5h5V9.1h-5V6.5h7.5v5.1h5v17.9
	H108z M98,16.8h5v-2.5h-5V16.8z M98,21.9h5v-2.5h-5V21.9z M105.5,16.8h5v-2.5h-5V16.8z M105.5,21.9h5v-2.5h-5V21.9z"/>
<path fill="#4CD30C" d="M146.6,14.8v-2.1v-2.1v-2V6.5h-2.1h-2v2.2h2v2.1v2.1V15h-2h-2.1h-2.1v-2.1h-2.1V15h-2h-2.1v-2.1h2.1v-2.1
	h-2.1V8.6h2.1V6.5h-2.1H130v2.2v2.1v2.1V15h-2v2v2.1h2.1V17h2.1h2.1v2.1h2h2.1v2.1h2.1v-2.1h2.1V17h2h2.1v2.1h2.1V17v-2.2H146.6z"/>
<path fill="#4CD30C" d="M140.4,10.7h-2.1v2.1h2.1V10.7z"/>
<path fill="#4CD30C" d="M140.4,8.6V6.5h-2.1h-2.1v2.2v2.1h2.1V8.6H140.4z"/>
<path fill="#4CD30C" d="M136.2,23.2h-2h-2.1H130v2.1h2.1h2.1h2v2.2h-2v2.1h2h2.1v-2.1v-2.2h2.1h2.1h2h2.1v-2.1h-2.1h-2h-2.1h-2.1
	v-2.1h-2.1V23.2z"/>
<path fill="#4CD30C" d="M163.7,29.5v-23h7.6v2.6h7.6V6.5h2.5v2.6h5.1v5.1H184v-2.5h-10.2v2.5h-2.5v-2.5h-2.5V9.1h-2.5v2.5h2.5v2.5
	h-2.5v5.1h2.5v2.5h-2.5v7.8H163.7z M168.8,19.4v-5.2h2.5v5.2H168.8z M171.3,21.9v-2.5h15.4v2.5h-5.1V27H179v-5.1h-2.5V27H174v-5.1
	H171.3z M171.3,29.5V27h2.5v2.5H171.3z M173.9,16.8v-2.5h10.2v2.5H173.9z M181.5,29.5V27h2.5v-2.5h2.5v5H181.5z"/>
</svg>
